<svg xmlns="http://www.w3.org/2000/svg" width="1891.357" height="1891.357" viewBox="0 0 1891.357 1891.357">
  <g id="back-asset" transform="matrix(0.978, -0.208, 0.208, 0.978, 0, 331.548)" fill="none" opacity="0.11">
    <path d="M797.328,0c440.352,0,797.328,356.976,797.328,797.328,0,139.592-35.872,270.8-98.679,384.522-136.022,246.28-397.888,412.806-698.649,412.806C356.976,1594.656,0,1237.68,0,797.328S356.976,0,797.328,0Z" stroke="none"/>
    <path d="M 797.3280029296875 200.0001220703125 C 467.9600830078125 200.0001220703125 200.0001220703125 467.9600830078125 200.0001220703125 797.3280029296875 C 200.0001220703125 1126.695922851562 467.9600830078125 1394.655883789062 797.3280029296875 1394.655883789062 C 1014.843017578125 1394.655883789062 1215.465942382812 1276.062622070312 1320.904663085938 1085.155883789062 C 1369.152954101562 997.7984008789062 1394.655883789062 898.2688598632812 1394.655883789062 797.3280029296875 C 1394.655883789062 467.9600830078125 1126.695922851562 200.0001220703125 797.3280029296875 200.0001220703125 M 797.3280029296875 0.0001220703125 C 1237.680053710938 0.0001220703125 1594.655883789062 356.9759521484375 1594.655883789062 797.3280029296875 C 1594.655883789062 936.919677734375 1558.783813476562 1068.133056640625 1495.976806640625 1181.85009765625 C 1359.954711914062 1428.130493164062 1098.08837890625 1594.655883789062 797.3280029296875 1594.655883789062 C 356.9759521484375 1594.655883789062 0.0001220703125 1237.680053710938 0.0001220703125 797.3280029296875 C 0.0001220703125 356.9759521484375 356.9759521484375 0.0001220703125 797.3280029296875 0.0001220703125 Z" stroke="none" fill="#fff"/>
  </g>
</svg>
